<svg width="8" height="8" viewBox="0 0 8 8" fill="none" xmlns="http://www.w3.org/2000/svg">
<path fill-rule="evenodd" clip-rule="evenodd" d="M-0.000122029 3.50083C-0.000122027 3.36822 0.0525565 3.24105 0.146325 3.14728C0.240093 3.05351 0.36727 3.00083 0.499878 3.00083L6.29288 3.00083L4.14588 0.854833C4.09939 0.808345 4.06251 0.753156 4.03735 0.692417C4.0122 0.631677 3.99925 0.566577 3.99925 0.500833C3.99925 0.435089 4.0122 0.369989 4.03735 0.309249C4.06251 0.24851 4.09939 0.193321 4.14588 0.146833C4.19237 0.100345 4.24755 0.0634685 4.30829 0.0383096C4.36903 0.0131507 4.43413 0.000201755 4.49988 0.000201756C4.56562 0.000201757 4.63072 0.0131507 4.69146 0.0383096C4.7522 0.0634685 4.80739 0.100345 4.85388 0.146833L7.85388 3.14683C7.90044 3.19328 7.93738 3.24845 7.96259 3.3092C7.9878 3.36995 8.00077 3.43507 8.00077 3.50083C8.00077 3.5666 7.9878 3.63172 7.96259 3.69247C7.93738 3.75321 7.90044 3.80839 7.85388 3.85483L4.85388 6.85483C4.80739 6.90132 4.7522 6.9382 4.69146 6.96336C4.63072 6.98852 4.56562 7.00146 4.49988 7.00146C4.43413 7.00146 4.36903 6.98852 4.30829 6.96336C4.24755 6.9382 4.19237 6.90132 4.14588 6.85483C4.05199 6.76095 3.99925 6.63361 3.99925 6.50083C3.99925 6.43509 4.0122 6.36999 4.03735 6.30925C4.06251 6.24851 4.09939 6.19332 4.14588 6.14683L6.29288 4.00083L0.499878 4.00083C0.36727 4.00083 0.240093 3.94815 0.146325 3.85439C0.0525565 3.76062 -0.00012203 3.63344 -0.000122029 3.50083Z" fill="#25529F"/>
</svg>
