<svg width="8" height="8" viewBox="0 0 8 8" fill="none" xmlns="http://www.w3.org/2000/svg">
<path fill-rule="evenodd" clip-rule="evenodd" d="M8.00085 3.50063C8.00085 3.63324 7.94818 3.76042 7.85441 3.85419C7.76064 3.94795 7.63346 4.00063 7.50085 4.00063L1.70785 4.00063L3.85485 6.14663C3.90134 6.19312 3.93822 6.24831 3.96338 6.30905C3.98854 6.36979 4.00149 6.43489 4.00149 6.50063C4.00149 6.56638 3.98854 6.63148 3.96338 6.69222C3.93822 6.75295 3.90134 6.80814 3.85485 6.85463C3.80837 6.90112 3.75318 6.938 3.69244 6.96316C3.6317 6.98831 3.5666 7.00126 3.50085 7.00126C3.43511 7.00126 3.37001 6.98831 3.30927 6.96316C3.24853 6.938 3.19334 6.90112 3.14685 6.85463L0.146854 3.85463C0.100291 3.80819 0.0633486 3.75301 0.038142 3.69226C0.0129355 3.63152 -3.92565e-05 3.5664 -3.92537e-05 3.50063C-3.92508e-05 3.43486 0.0129355 3.36974 0.0381421 3.309C0.0633486 3.24825 0.100291 3.19308 0.146854 3.14663L3.14685 0.146632C3.19334 0.100144 3.24853 0.0632672 3.30927 0.0381081C3.37001 0.0129491 3.43511 -1.99575e-07 3.50085 -1.96701e-07C3.5666 -1.93827e-07 3.6317 0.0129491 3.69244 0.0381082C3.75318 0.0632673 3.80837 0.100144 3.85485 0.146632C3.94874 0.240518 4.00149 0.367856 4.00149 0.500632C4.00149 0.566375 3.98854 0.631476 3.96338 0.692215C3.93822 0.752955 3.90134 0.808144 3.85485 0.854632L1.70785 3.00063L7.50085 3.00063C7.63346 3.00063 7.76064 3.05331 7.85441 3.14708C7.94818 3.24085 8.00085 3.36802 8.00085 3.50063Z" fill="#25529F"/>
</svg>
