<svg width="18" height="19" viewBox="0 0 18 19" fill="none" xmlns="http://www.w3.org/2000/svg">
<path opacity="0.6" d="M12.7801 15.0287C12.3559 15.02 12.0148 14.6875 12.0148 14.285C12.0055 13.8825 12.3467 13.5509 12.7709 13.5421H12.7801C13.2134 13.5421 13.5638 13.8746 13.5638 14.285C13.5638 14.6962 13.2134 15.0287 12.7801 15.0287ZM9.01805 11.8087C8.5939 11.8271 8.24352 11.5112 8.22508 11.1096C8.22508 10.7071 8.55702 10.3746 8.98117 10.3562C9.3961 10.3562 9.73726 10.6634 9.74648 11.0562C9.76492 11.4596 9.43298 11.7921 9.01805 11.8087ZM9.01805 14.985C8.5939 15.0034 8.24352 14.6875 8.22508 14.285C8.22508 13.8825 8.55702 13.5509 8.98117 13.5325C9.3961 13.5325 9.73726 13.8396 9.74648 14.2334C9.76492 14.6359 9.43298 14.9684 9.01805 14.985ZM5.22837 11.8087C4.80422 11.8271 4.45384 11.5112 4.43539 11.1096C4.43539 10.7071 4.76734 10.3746 5.19149 10.3562C5.60642 10.3562 5.94758 10.6634 5.9568 11.0562C5.97524 11.4596 5.6433 11.7921 5.22837 11.8087ZM5.21915 14.985C4.795 15.0034 4.44462 14.6875 4.42617 14.285C4.42617 13.8825 4.75812 13.5509 5.18227 13.5325C5.59719 13.5325 5.93836 13.8396 5.94758 14.2334C5.96602 14.6359 5.63408 14.9684 5.21915 14.985ZM12.024 11.1009C12.024 10.6984 12.3559 10.3746 12.7801 10.3659C13.195 10.3659 13.5269 10.68 13.5454 11.0659C13.5546 11.4684 13.2227 11.8009 12.8077 11.8087C12.3836 11.8175 12.0332 11.5112 12.024 11.1096V11.1009ZM0.599609 7.29987V13.9612C0.599609 16.7262 2.46218 18.45 5.38512 18.45H12.6049C15.5555 18.45 17.3996 16.7612 17.3996 14.0146V7.29987H0.599609Z" fill="#4285F7"/>
<path opacity="0.4" d="M0.602539 7.29979C0.614526 6.78616 0.660629 5.76679 0.747303 5.43866C1.18989 3.59329 2.69286 2.42079 4.84127 2.25366H13.1583C15.2882 2.42954 16.8097 3.60991 17.2522 5.43866C17.338 5.75804 17.3841 6.78529 17.3961 7.29979H0.602539Z" fill="#4285F7"/>
<path d="M5.55081 4.96625C5.95652 4.96625 6.2608 4.67837 6.2608 4.2925V1.62462C6.2608 1.23875 5.95652 0.949997 5.55081 0.949997C5.1451 0.949997 4.84082 1.23875 4.84082 1.62462V4.2925C4.84082 4.67837 5.1451 4.96625 5.55081 4.96625Z" fill="#4285F7"/>
<path d="M12.4483 4.96625C12.8448 4.96625 13.1583 4.67837 13.1583 4.2925V1.62462C13.1583 1.23875 12.8448 0.949997 12.4483 0.949997C12.0426 0.949997 11.7383 1.23875 11.7383 1.62462V4.2925C11.7383 4.67837 12.0426 4.96625 12.4483 4.96625Z" fill="#4285F7"/>
</svg>
