<svg width="12" height="14" viewBox="0 0 12 14" fill="none" xmlns="http://www.w3.org/2000/svg">
<path d="M8.70033 11.06C8.39737 11.0533 8.15368 10.8 8.15368 10.4933C8.14709 10.1867 8.39078 9.934 8.69374 9.92733H8.70033C9.00988 9.92733 9.26015 10.1807 9.26015 10.4933C9.26015 10.8067 9.00988 11.06 8.70033 11.06ZM6.01317 8.60667C5.71021 8.62067 5.45993 8.38 5.44676 8.074C5.44676 7.76733 5.68386 7.514 5.98683 7.5C6.28321 7.5 6.52689 7.734 6.53348 8.03333C6.54665 8.34067 6.30955 8.594 6.01317 8.60667ZM6.01317 11.0267C5.71021 11.0407 5.45993 10.8 5.44676 10.4933C5.44676 10.1867 5.68386 9.934 5.98683 9.92C6.28321 9.92 6.52689 10.154 6.53348 10.454C6.54665 10.7607 6.30955 11.014 6.01317 11.0267ZM3.30626 8.60667C3.00329 8.62067 2.75302 8.38 2.73985 8.074C2.73985 7.76733 2.97695 7.514 3.27991 7.5C3.57629 7.5 3.81998 7.734 3.82656 8.03333C3.83974 8.34067 3.60263 8.594 3.30626 8.60667ZM3.29967 11.0267C2.99671 11.0407 2.74643 10.8 2.73326 10.4933C2.73326 10.1867 2.97036 9.934 3.27333 9.92C3.5697 9.92 3.81339 10.154 3.81998 10.454C3.83315 10.7607 3.59605 11.014 3.29967 11.0267ZM8.16026 8.06733C8.16026 7.76067 8.39737 7.514 8.70033 7.50733C8.99671 7.50733 9.23381 7.74667 9.24698 8.04067C9.25357 8.34733 9.01647 8.60067 8.72009 8.60667C8.41712 8.61333 8.16685 8.38 8.16026 8.074V8.06733ZM0 5.17133V10.2467C0 12.3533 1.33041 13.6667 3.41822 13.6667H8.57519C10.6828 13.6667 12 12.38 12 10.2873V5.17133H0Z" fill="#4285F7"/>
<path opacity="0.4" d="M0.00195312 5.17127C0.0105151 4.77993 0.043446 4.00327 0.105356 3.75327C0.421492 2.34727 1.49504 1.45393 3.02961 1.3266H8.97034C10.4917 1.4606 11.5785 2.35993 11.8946 3.75327C11.9558 3.9966 11.9888 4.77927 11.9973 5.17127H0.00195312Z" fill="#4285F7"/>
<path d="M3.53643 3.39333C3.82622 3.39333 4.04357 3.174 4.04357 2.88V0.847334C4.04357 0.553334 3.82622 0.333334 3.53643 0.333334C3.24664 0.333334 3.0293 0.553334 3.0293 0.847334V2.88C3.0293 3.174 3.24664 3.39333 3.53643 3.39333Z" fill="#4285F7"/>
<path d="M8.46319 3.39333C8.74639 3.39333 8.97032 3.174 8.97032 2.88V0.847334C8.97032 0.553334 8.74639 0.333334 8.46319 0.333334C8.1734 0.333334 7.95605 0.553334 7.95605 0.847334V2.88C7.95605 3.174 8.1734 3.39333 8.46319 3.39333Z" fill="#4285F7"/>
</svg>
