<svg width="11" height="12" viewBox="0 0 11 12" fill="none" xmlns="http://www.w3.org/2000/svg">
<path opacity="0.4" d="M9.18784 4.26209C8.94328 4.26209 8.61935 4.25625 8.21605 4.25625C7.23247 4.25625 6.42373 3.3795 6.42373 2.31025V0.434254C6.42373 0.286671 6.31378 0.166504 6.1781 0.166504H3.3137C1.9767 0.166504 0.895508 1.34834 0.895508 2.79675V9.08217C0.895508 10.6018 2.02818 11.8332 3.42525 11.8332H7.69101C9.02373 11.8332 10.1038 10.6589 10.1038 9.20934V4.52459C10.1038 4.37642 9.99444 4.25684 9.85822 4.25742C9.62921 4.25917 9.35463 4.26209 9.18784 4.26209Z" fill="#4285F7"/>
<path opacity="0.4" d="M7.71229 0.497632C7.55033 0.316216 7.26758 0.441049 7.26758 0.692466V2.23072C7.26758 2.87588 7.76049 3.40672 8.35958 3.40672C8.73766 3.41138 9.26199 3.41255 9.70724 3.41138C9.93529 3.4108 10.0512 3.11738 9.89304 2.94005C9.32158 2.30013 8.29837 1.1533 7.71229 0.497632Z" fill="#4285F7"/>
<path d="M7.18174 6.41329C7.02357 6.2447 6.76899 6.24354 6.61082 6.41445L5.75012 7.34604V4.53029C5.75012 4.29054 5.5692 4.0957 5.34657 4.0957C5.12395 4.0957 4.94303 4.29054 4.94303 4.53029V7.34604L4.08178 6.41445C3.92416 6.24354 3.66903 6.2447 3.51141 6.41329C3.35324 6.58245 3.35324 6.8572 3.50978 7.02754L5.06057 8.7052H5.06112C5.09795 8.74487 5.14182 8.77695 5.19112 8.79912C5.23987 8.8207 5.29295 8.83237 5.34657 8.83237C5.40074 8.83237 5.45382 8.8207 5.50257 8.79854C5.55078 8.77695 5.59466 8.74487 5.63149 8.70579L5.63257 8.7052L7.18282 7.02754C7.33991 6.8572 7.33991 6.58245 7.18174 6.41329Z" fill="#4285F7"/>
</svg>
