<svg width="11" height="12" viewBox="0 0 11 12" fill="none" xmlns="http://www.w3.org/2000/svg">
<path opacity="0.4" d="M9.18808 4.26227C8.94353 4.26227 8.6196 4.25644 8.2163 4.25644C7.23272 4.25644 6.42397 3.37969 6.42397 2.31044V0.434437C6.42397 0.286854 6.31403 0.166687 6.17834 0.166687H3.31395C1.97694 0.166687 0.895752 1.34852 0.895752 2.79694V9.08235C0.895752 10.6019 2.02843 11.8334 3.4255 11.8334H7.69126C9.02397 11.8334 10.1041 10.6591 10.1041 9.20952V4.52477C10.1041 4.3766 9.99468 4.25702 9.85846 4.2576C9.62946 4.25935 9.35487 4.26227 9.18808 4.26227Z" fill="#D30A44"/>
<path opacity="0.4" d="M7.71229 0.497632C7.55033 0.316216 7.26758 0.441049 7.26758 0.692466V2.23072C7.26758 2.87588 7.76049 3.40672 8.35958 3.40672C8.73766 3.41138 9.26199 3.41255 9.70724 3.41138C9.93529 3.4108 10.0512 3.11738 9.89304 2.94005C9.32158 2.30013 8.29837 1.1533 7.71229 0.497632Z" fill="#D30A44"/>
<path d="M7.18199 6.41353C7.02382 6.24495 6.76924 6.24378 6.61107 6.4147L5.75036 7.34628V4.53053C5.75036 4.29078 5.56944 4.09595 5.34682 4.09595C5.12419 4.09595 4.94328 4.29078 4.94328 4.53053V7.34628L4.08203 6.4147C3.9244 6.24378 3.66928 6.24495 3.51165 6.41353C3.35348 6.5827 3.35348 6.85745 3.51003 7.02778L5.06082 8.70545H5.06136C5.09819 8.74511 5.14207 8.7772 5.19136 8.79936C5.24011 8.82095 5.29319 8.83261 5.34682 8.83261C5.40099 8.83261 5.45407 8.82095 5.50282 8.79878C5.55103 8.7772 5.5949 8.74511 5.63174 8.70603L5.63282 8.70545L7.18307 7.02778C7.34015 6.85745 7.34015 6.5827 7.18199 6.41353Z" fill="#D30A44"/>
</svg>
