<svg width="14" height="12" viewBox="0 0 14 12" fill="none" xmlns="http://www.w3.org/2000/svg">
<path opacity="0.4" d="M13.6663 8.6268C13.6663 10.4868 12.173 11.9935 10.313 12.0001H10.3063H3.69967C1.84634 12.0001 0.333008 10.5001 0.333008 8.64013V8.63346C0.333008 8.63346 0.337008 5.6828 0.342341 4.1988C0.343008 3.92013 0.663008 3.76413 0.881008 3.93747C2.46501 5.19413 5.29767 7.48546 5.33301 7.51546C5.80634 7.8948 6.40634 8.1088 7.01967 8.1088C7.63301 8.1088 8.23301 7.8948 8.70634 7.50813C8.74167 7.4848 11.511 5.26213 13.119 3.9848C13.3377 3.8108 13.659 3.9668 13.6597 4.2448C13.6663 5.71747 13.6663 8.6268 13.6663 8.6268Z" fill="#25529F"/>
<path d="M13.3166 1.7824C12.7393 0.6944 11.6033 -0.000267029 10.3526 -0.000267029H3.69927C2.4486 -0.000267029 1.3126 0.6944 0.735271 1.7824C0.605938 2.02573 0.667271 2.32907 0.882605 2.50107L5.8326 6.4604C6.17927 6.7404 6.59927 6.87973 7.01927 6.87973C7.02194 6.87973 7.02394 6.87973 7.02594 6.87973C7.02794 6.87973 7.03061 6.87973 7.03261 6.87973C7.45261 6.87973 7.8726 6.7404 8.21927 6.4604L13.1693 2.50107C13.3846 2.32907 13.4459 2.02573 13.3166 1.7824Z" fill="#25529F"/>
</svg>
