<svg width="14" height="12" viewBox="0 0 14 12" fill="none" xmlns="http://www.w3.org/2000/svg">
<path opacity="0.4" d="M13.3333 8.62707C13.3333 10.4871 11.84 11.9937 9.98 12.0004H9.97333H3.36667C1.51333 12.0004 0 10.5004 0 8.64041V8.63374C0 8.63374 0.004 5.68307 0.00933333 4.19907C0.01 3.92041 0.33 3.76441 0.548 3.93774C2.132 5.19441 4.96467 7.48574 5 7.51574C5.47333 7.89507 6.07333 8.10907 6.68667 8.10907C7.3 8.10907 7.9 7.89507 8.37333 7.50841C8.40867 7.48507 11.178 5.26241 12.786 3.98507C13.0047 3.81107 13.326 3.96707 13.3267 4.24507C13.3333 5.71774 13.3333 8.62707 13.3333 8.62707Z" fill="#D30A44"/>
<path d="M12.9841 1.78267C12.4068 0.694667 11.2708 0 10.0201 0H3.36675C2.11609 0 0.980085 0.694667 0.402752 1.78267C0.273419 2.026 0.334752 2.32933 0.550085 2.50133L5.50009 6.46067C5.84675 6.74067 6.26675 6.88 6.68675 6.88C6.68942 6.88 6.69142 6.88 6.69342 6.88C6.69542 6.88 6.69809 6.88 6.70009 6.88C7.12009 6.88 7.54009 6.74067 7.88675 6.46067L12.8368 2.50133C13.0521 2.32933 13.1134 2.026 12.9841 1.78267Z" fill="#D30A44"/>
</svg>
