<svg width="12" height="12" viewBox="0 0 12 12" fill="none" xmlns="http://www.w3.org/2000/svg">
<path d="M9.81907 5.19195C9.81907 7.78619 7.72997 9.88389 5.15953 9.88389C2.58909 9.88389 0.5 7.78619 0.5 5.19195C0.5 2.5977 2.58909 0.5 5.15953 0.5C7.72997 0.5 9.81907 2.5977 9.81907 5.19195Z" stroke="#25529F"/>
<path opacity="0.4" d="M11.2049 11.9732C11.0044 11.9667 10.8139 11.8842 10.6713 11.7423L9.44945 10.3141C9.18749 10.0745 9.16607 9.6674 9.40143 9.40135C9.51159 9.28987 9.66137 9.22719 9.81761 9.22719C9.97384 9.22719 10.1236 9.28987 10.2338 9.40135L11.7704 10.6309C11.9918 10.8574 12.0601 11.1938 11.9448 11.4895C11.8296 11.7853 11.5523 11.9853 11.2369 12L11.2049 11.9732Z" fill="#25529F"/>
</svg>
