<svg width="12" height="12" viewBox="0 0 12 12" fill="none" xmlns="http://www.w3.org/2000/svg">
<path d="M9.81907 5.19195C9.81907 7.78619 7.72997 9.88389 5.15953 9.88389C2.58909 9.88389 0.5 7.78619 0.5 5.19195C0.5 2.5977 2.58909 0.5 5.15953 0.5C7.72997 0.5 9.81907 2.5977 9.81907 5.19195Z" stroke="#9899AF"/>
<path opacity="0.4" d="M11.2051 11.9732C11.0047 11.9667 10.8141 11.8842 10.6715 11.7423L9.44969 10.3141C9.18774 10.0745 9.16632 9.66739 9.40167 9.40134C9.51183 9.28986 9.66162 9.22718 9.81785 9.22718C9.97408 9.22718 10.1239 9.28986 10.234 9.40134L11.7707 10.6309C11.992 10.8574 12.0603 11.1937 11.9451 11.4895C11.8298 11.7853 11.5525 11.9852 11.2371 12L11.2051 11.9732Z" fill="#9899AF"/>
</svg>
