<svg width="12" height="10" viewBox="0 0 12 10" fill="none" xmlns="http://www.w3.org/2000/svg">
<g opacity="0.5">
<path d="M4.875 5C4.875 4.37868 5.37868 3.875 6 3.875C6.62132 3.875 7.125 4.37868 7.125 5C7.125 5.62132 6.62132 6.125 6 6.125C5.37868 6.125 4.875 5.62132 4.875 5Z" fill="#25529F"/>
<path fill-rule="evenodd" clip-rule="evenodd" d="M3.17587 1.79786C3.96162 1.1545 4.92952 0.625 6 0.625C7.07048 0.625 8.03838 1.1545 8.82414 1.79786C9.61419 2.44473 10.2602 3.23932 10.6943 3.84401L10.7301 3.8938C10.9914 4.25692 11.2065 4.55583 11.2065 5C11.2065 5.44417 10.9914 5.74308 10.7301 6.10621L10.6943 6.15599C10.2602 6.76068 9.61419 7.55527 8.82414 8.20214C8.03838 8.8455 7.07048 9.375 6 9.375C4.92952 9.375 3.96162 8.8455 3.17587 8.20214C2.38582 7.55527 1.73981 6.76068 1.30571 6.15599L1.26991 6.10621C1.00858 5.74308 0.793457 5.44417 0.793457 5C0.793457 4.55583 1.00858 4.25692 1.26991 3.8938L1.30571 3.84401C1.73981 3.23932 2.38582 2.44473 3.17587 1.79786ZM6 3.125C4.96447 3.125 4.125 3.96447 4.125 5C4.125 6.03553 4.96447 6.875 6 6.875C7.03553 6.875 7.875 6.03553 7.875 5C7.875 3.96447 7.03553 3.125 6 3.125Z" fill="#25529F"/>
</g>
</svg>
