<svg width="12" height="10" viewBox="0 0 12 10" fill="none" xmlns="http://www.w3.org/2000/svg">
<g opacity="0.5">
<path d="M4.87451 5C4.87451 4.37868 5.37819 3.875 5.99951 3.875C6.62083 3.875 7.12451 4.37868 7.12451 5C7.12451 5.62132 6.62083 6.125 5.99951 6.125C5.37819 6.125 4.87451 5.62132 4.87451 5Z" fill="#D30A44"/>
<path fill-rule="evenodd" clip-rule="evenodd" d="M3.17538 1.79786C3.96114 1.1545 4.92904 0.625 5.99951 0.625C7.06999 0.625 8.03789 1.1545 8.82365 1.79786C9.6137 2.44473 10.2597 3.23932 10.6938 3.84401L10.7296 3.8938C10.9909 4.25692 11.2061 4.55583 11.2061 5C11.2061 5.44417 10.9909 5.74308 10.7296 6.10621L10.6938 6.15599C10.2597 6.76068 9.6137 7.55527 8.82365 8.20214C8.03789 8.8455 7.06999 9.375 5.99951 9.375C4.92904 9.375 3.96114 8.8455 3.17538 8.20214C2.38533 7.55527 1.73932 6.76068 1.30522 6.15599L1.26942 6.10621C1.00809 5.74308 0.792969 5.44417 0.792969 5C0.792969 4.55583 1.00809 4.25692 1.26942 3.8938L1.30522 3.84401C1.73932 3.23932 2.38533 2.44473 3.17538 1.79786ZM5.99951 3.125C4.96398 3.125 4.12451 3.96447 4.12451 5C4.12451 6.03553 4.96398 6.875 5.99951 6.875C7.03505 6.875 7.87451 6.03553 7.87451 5C7.87451 3.96447 7.03505 3.125 5.99951 3.125Z" fill="#D30A44"/>
</g>
</svg>
