<svg width="12" height="14" viewBox="0 0 12 14" fill="none" xmlns="http://www.w3.org/2000/svg">
<path opacity="0.4" d="M3.34507 4.6964V3.75713C3.35225 2.35935 4.53575 1.21762 5.99899 1.21762C7.11794 1.21762 8.12212 1.90642 8.48793 2.93683C8.60987 3.25688 8.9685 3.42316 9.29128 3.31254C9.44908 3.26314 9.57819 3.15182 9.64991 3.00571C9.72164 2.8596 9.73599 2.69262 9.67861 2.53955C9.13348 1.0235 7.65589 4.57764e-05 5.98464 4.57764e-05C3.84717 4.57764e-05 2.10419 1.69143 2.08984 3.77104V4.83764L3.34507 4.6964Z" fill="#D30A44"/>
<path d="M8.98673 4.69791C10.6508 4.69791 12 6.00662 12 7.62078V11.0773C12 12.6914 10.6508 14.0002 8.98673 14.0002H3.01327C1.34919 14.0002 0 12.6914 0 11.0773V7.62078C0 6.00662 1.34919 4.69791 3.01327 4.69791H8.98673ZM5.99641 7.96796C5.65212 7.96796 5.37239 8.2393 5.37239 8.57327V10.1178C5.37239 10.4588 5.65212 10.7301 5.99641 10.7301C6.34788 10.7301 6.62761 10.4588 6.62761 10.1178V8.57327C6.62761 8.2393 6.34788 7.96796 5.99641 7.96796Z" fill="#D30A44"/>
</svg>
