<svg width="12" height="14" viewBox="0 0 12 14" fill="none" xmlns="http://www.w3.org/2000/svg">
<path opacity="0.4" d="M3.3452 4.69635V3.75708C3.35237 2.35931 4.53587 1.21757 5.99911 1.21757C7.11806 1.21757 8.12224 1.90637 8.48805 2.93679C8.60999 3.25683 8.96863 3.42312 9.2914 3.31249C9.4492 3.26309 9.57831 3.15177 9.65004 3.00567C9.72176 2.85956 9.73611 2.69257 9.67873 2.53951C9.1336 1.02346 7.65601 0 5.98476 0C3.84729 0 2.10431 1.69138 2.08997 3.771V4.83759L3.3452 4.69635Z" fill="#25529F"/>
<path d="M8.98673 4.69788C10.6508 4.69788 12 6.00659 12 7.62075V11.0773C12 12.6914 10.6508 14.0001 8.98673 14.0001H3.01327C1.34919 14.0001 0 12.6914 0 11.0773V7.62075C0 6.00659 1.34919 4.69788 3.01327 4.69788H8.98673ZM5.99641 7.96793C5.65212 7.96793 5.37239 8.23927 5.37239 8.57324V10.1178C5.37239 10.4587 5.65212 10.7301 5.99641 10.7301C6.34788 10.7301 6.62761 10.4587 6.62761 10.1178V8.57324C6.62761 8.23927 6.34788 7.96793 5.99641 7.96793Z" fill="#25529F"/>
</svg>
