<svg width="92" height="92" viewBox="0 0 92 92" fill="none" xmlns="http://www.w3.org/2000/svg">
<path d="M43.0856 13.6317H48.3844C48.9507 13.6317 49.4361 13.1463 49.4361 12.58C49.4361 12.0137 48.9507 11.5283 48.3844 11.5283H43.0856V13.6317ZM43.0856 18.7688H48.5462C49.1934 18.7688 49.7597 18.2429 49.7597 17.5553C49.7597 16.9081 49.2339 16.3418 48.5462 16.3418H43.0856V18.7688ZM51.5799 14.8452C52.308 15.5328 52.753 16.5036 52.753 17.5957C52.753 19.6991 51.0137 21.4384 48.9103 21.4384H40.0923V8.7373H48.7889C50.8114 8.7373 52.4698 10.3957 52.4698 12.4182C52.4698 13.389 52.1462 14.2384 51.5799 14.8452Z" fill="#10384F"/>
<path d="M53.6429 36.6069H50.4069L49.3957 34.5035H42.317L41.3058 36.6069H38.0698L44.4204 23.9058H47.3732L53.6429 36.6069ZM45.7957 27.1417L43.571 31.753H48.0204L45.7957 27.1417Z" fill="#10384F"/>
<path d="M50.1239 39.3174H53.7643L47.3329 47.5691V51.9781H44.2992V47.5691L37.8677 39.3174H41.5081L45.7958 45.1017L50.1239 39.3174Z" fill="#10384F"/>
<path d="M66.9506 39.3174V42.0275H58.4966V44.1309H66.627V46.841H58.4966V49.268H66.9506V51.9781H55.4629V39.3174H66.9506Z" fill="#10384F"/>
<path d="M76.2945 47.1645H74.0293V51.978H70.9956V39.2769H78.7215C80.8653 39.2769 82.6451 41.0566 82.6451 43.2005C82.6451 44.9802 81.472 46.4769 79.8136 46.9623L83.535 51.9375H79.8945L76.2945 47.1645ZM78.3979 42.0274H74.0293V44.4544H78.3979C79.0451 44.4544 79.6114 43.9285 79.6114 43.2409C79.6114 42.5533 79.0451 42.0274 78.3979 42.0274Z" fill="#10384F"/>
<path d="M39.2829 51.9775H36.047L35.0357 49.8741H27.9166L26.9054 51.9775H23.6694L30.02 39.2764H32.9728L39.2829 51.9775ZM31.4762 42.5528L29.2515 47.164H33.7009L31.4762 42.5528Z" fill="#10384F"/>
<path d="M12.3033 44.1308H17.6022C18.1685 44.1308 18.6539 43.6454 18.6539 43.0791C18.6539 42.5128 18.1685 42.0274 17.6022 42.0274H12.3033V44.1308ZM12.3033 49.2679H17.764C18.4112 49.2679 18.9775 48.742 18.9775 48.0544C18.9775 47.4072 18.4516 46.8409 17.764 46.8409H12.3033V49.2679ZM20.7977 45.3847C21.5258 46.0724 21.9708 47.0432 21.9708 48.1353C21.9708 50.2791 20.2314 51.978 18.1281 51.978H9.31006V39.2769H18.0067C20.0292 39.2769 21.6876 40.9353 21.6876 42.9578C21.6876 43.9286 21.3236 44.7375 20.7977 45.3847Z" fill="#10384F"/>
<path d="M51.5395 54.7285V57.4386H43.0856V59.542H51.2564V62.2521H43.0856V64.6791H51.5395V67.3892H40.0923V54.7285H51.5395Z" fill="#10384F"/>
<path d="M49.4361 74.3464C49.4361 73.6993 48.9103 73.133 48.2226 73.133H43.0856V75.5599H48.2226C48.9103 75.5599 49.4361 74.9936 49.4361 74.3464ZM40.0923 83.124V70.4229H48.5867C50.7305 70.4229 52.4698 72.2026 52.4698 74.3464C52.4698 76.0049 51.4586 77.4206 50.0429 77.9869L53.8451 83.0835H50.2047L46.5642 78.2701H43.0856V83.0835H40.0923V83.124Z" fill="#10384F"/>
<path d="M91.5836 42.9978C90.1274 19.0113 70.1858 0 45.8352 0C21.4442 0 1.54302 19.0113 0.0463867 43.0383C0.0868362 44.0091 0.208184 44.9394 0.289083 45.9102C1.25987 53.8787 4.33403 61.2406 8.86438 67.4293C17.197 78.7552 30.6262 86.0766 45.7948 86.0766C24.5992 86.0766 7.1655 69.5732 5.70932 48.7417C5.62842 47.8113 5.58797 46.8405 5.58797 45.9102C5.58797 44.9394 5.62842 44.0091 5.70932 43.0787C7.1655 22.2472 24.5992 5.74383 45.7948 5.74383C60.9229 5.74383 74.3926 13.1056 82.7252 24.3911C87.296 30.5798 90.3297 37.9416 91.3005 45.9102C91.4218 46.8405 91.5027 47.7709 91.5432 48.7417C91.5836 47.8113 91.6241 46.8405 91.6241 45.9102C91.6645 44.899 91.6645 43.9686 91.5836 42.9978Z" fill="#89D329"/>
<path d="M0.0467071 48.7014C1.50289 72.6879 21.4445 91.7396 45.8356 91.7396C70.2266 91.7396 90.1278 72.7284 91.6244 48.7014C91.5839 47.7306 91.4626 46.8002 91.3817 45.8294C90.4109 37.8609 87.3367 30.4991 82.8064 24.3103C74.4738 12.9844 61.0446 5.66309 45.876 5.66309C67.0715 5.66309 84.5053 22.1665 85.9615 42.998C86.0424 43.9283 86.0828 44.8991 86.0828 45.8294C86.0828 46.8002 86.0424 47.7306 85.9615 48.6609C84.5053 69.4924 67.0715 85.9958 45.876 85.9958C30.7479 85.9958 17.2782 78.634 8.9456 67.3081C4.3748 61.1194 1.34109 53.7576 0.370301 45.789C0.248953 44.8587 0.168054 43.9283 0.127605 42.9575C0.0871553 43.8879 0.0467071 44.8587 0.0467071 45.789C-0.0341919 46.8002 0.00625756 47.771 0.0467071 48.7014Z" fill="#00BCFF"/>
</svg>
