<svg width="83" height="72" viewBox="0 0 83 72" fill="none" xmlns="http://www.w3.org/2000/svg">
<path d="M51.9102 0.700195C35.4452 0.700195 0 4.18037 0 30.618C0 48.6038 17.9858 72 37.9018 72C44.3357 72 49.8631 69.7189 55.0102 65.917C67.3225 56.7632 82.9102 36.2624 82.9102 20.3237C82.9102 8.42093 74.4875 0.700195 51.9102 0.700195Z" fill="#EC6608"/>
<path d="M71.5344 44.0708C70.2768 44.0708 68.5806 43.7491 65.8608 40.8246C62.3514 36.9349 58.257 31.9925 58.257 31.9925L64.4863 26.1435C68.1419 22.6925 69.1655 22.4878 69.458 22.4001H63.6674C62.4976 23.9501 61.1816 25.1199 61.1816 25.1199L54.5136 31.3491V11.7256L49.4542 13.0416C50.1269 13.919 50.3316 15.3812 50.3316 18.6859V38.9821C50.3316 43.0764 50.0976 43.5151 49.659 44.6849H55.0693C54.7184 43.7198 54.4844 43.0764 54.4844 38.9821V33.1038C54.4844 33.1038 57.4967 36.701 61.2108 41.1755C63.5504 43.9538 65.4514 45.2113 67.7325 45.2113C69.4872 45.2113 71.0957 44.7727 72.207 43.9538C72.0315 43.983 71.7391 44.0708 71.5344 44.0708ZM41.5288 32.1972C38.6043 30.735 35.826 29.4189 35.826 27.0793C35.826 25.0906 37.9609 24.2133 40.1543 24.2133C42.4354 24.2133 44.541 25.0322 46.2958 26.4067V23.102C44.4533 22.0784 42.3476 21.552 40.2127 21.552C36.2646 21.552 31.8486 23.5406 31.8486 28.0737C31.8486 31.817 35.1533 33.4255 38.2241 34.8878C41.0024 36.2038 43.5759 37.3736 43.5759 39.801C43.5759 42.1991 41.0024 42.7255 38.9552 42.7255C37.0543 42.7255 34.042 41.9066 31.6439 40.6198V43.983C33.9835 44.9481 36.2647 45.4453 38.809 45.4453C42.9033 45.4453 47.8165 43.7491 47.8165 38.8359C47.8457 35.5019 44.6288 33.7472 41.5288 32.1972ZM27.7543 43.018C25.6486 42.0529 22.5194 41.9944 17.4015 41.5849C15.0326 41.4095 14.5355 40.7076 14.5355 39.7425C14.5355 39.1576 14.8279 38.5142 15.4421 38.017C15.8515 37.6661 16.4072 37.4029 16.9921 37.2859C17.6062 37.3736 18.1326 37.3736 18.6298 37.3736C24.3326 37.3736 27.5788 33.9227 27.5788 29.8284C27.5788 28.0737 26.9062 26.2312 25.7364 24.9152C26.9939 24.9152 29.3335 25.0614 30.0647 25.2076V22.2831C28.7486 22.6633 27.1401 22.7218 25.7364 22.7218C24.5666 22.7218 23.4553 22.4878 22.4317 22.1954C21.1741 21.8152 19.7411 21.5227 18.4836 21.5227C12.7515 21.5227 9.18359 25.0321 9.18359 29.5944C9.18359 32.7236 11.2015 35.5019 14.126 36.6132C11.9326 37.6368 10.7628 39.0991 10.7628 40.7953C10.7628 42.433 11.9326 44.1585 14.2138 44.7727C10.9091 46.2057 7.83831 48.8085 10.1194 51.85C13.4826 56.2953 25.3854 55.8274 29.0703 51.2066C32.0241 47.6094 30.0354 44.0708 27.7543 43.018ZM13.2194 29.0387C13.2194 26.0265 15.0619 23.9793 18.1326 23.9793C21.642 23.9793 23.543 26.6114 23.543 29.8869C23.543 32.8991 21.9053 35.034 18.776 35.034C15.1789 35.0633 13.2194 32.4312 13.2194 29.0387ZM21.9053 52.2594C15.1789 52.9906 9.91472 48.516 16.144 45.0944C17.577 45.2113 18.6883 45.3576 20.9987 45.4453C25.5024 45.6208 26.9354 46.6444 27.2864 47.9019C27.8128 49.7736 26.2335 51.7915 21.9053 52.2594Z" fill="white"/>
</svg>
