<svg id="reckitt_logo" data-name="reckitt logo" xmlns="http://www.w3.org/2000/svg" xmlns:xlink="http://www.w3.org/1999/xlink" viewBox="0 0 283.62666 146.00834"><defs><linearGradient id="reckitt_Grad_-_RGB_35_degrees" x1="70.47524" y1="226.7459" x2="241.51233" y2="106.98444" gradientUnits="userSpaceOnUse"><stop offset="0" stop-color="#c41974"/><stop offset="0.25" stop-color="#ff007f"/></linearGradient><linearGradient id="R_Grad_-_RGB_35_degrees" x1="234.03201" y1="120.62334" x2="318.92426" y2="61.18114" gradientUnits="userSpaceOnUse"><stop offset="0.5" stop-color="#ff007f"/><stop offset="1" stop-color="#ff593d"/></linearGradient></defs><path d="M54.81527,151.20154h-.04v-6.312H43.90866V188.8049H54.85525V167.93919c0-6.08342.625-8.21269,2.36013-10.32419a7.83068,7.83068,0,0,1,6.40551-2.85465,9.89168,9.89168,0,0,1,4.4215.883l5.35881-9.89688A15.72432,15.72432,0,0,0,65.68,143.82886c-5.63378,0-8.89542,2.89876-10.86475,7.37268m36.591,1.80223c5.52139,0,8.15722,4.76623,8.15722,10.12921H82.18835c.93657-6.73671,4.38342-10.12921,9.21793-10.12921M71.126,167.05618c0,14.533,8.33718,22.80565,22.8909,22.80565a35.75768,35.75768,0,0,0,15.158-2.97268l-3.74367-9.20395a22.85831,22.85831,0,0,1-10.7946,2.405c-7.17766-.08146-11.1729-3.07488-12.32824-8.92593h27.74047c.18293-2.00972.25462-3.93189.25462-6.23621,0-11.062-4.54259-21.10334-18.159-21.10334-14.38095,0-21.01848,11.40264-21.01848,23.23149m174.447-30.12475v7.95923H230.55752V129.27738l-10.92847,7.65255v7.96073h-6.75143V154.161h6.75143v21.50353c0,4.97032,1.15422,8.28962,3.54865,10.75045,2.38914,2.45631,6.07249,3.46079,10.66483,3.46079a23.16674,23.16674,0,0,0,9.74863-2.05458l-3.66974-9.27675a9.68124,9.68124,0,0,1-4.70478,1.32282c-3.25217,0-4.65912-1.7796-4.65912-4.93V154.161h15.01541v21.50353c0,4.97032,1.15384,8.28962,3.54865,10.75045,2.38957,2.45631,6.07326,3.46079,10.66521,3.46079a23.16355,23.16355,0,0,0,9.74825-2.05458l-3.66936-9.27675a9.68117,9.68117,0,0,1-4.70473,1.32282c-3.25221,0-4.65878-1.7796-4.65878-5.04653V154.161h11.55238v-9.27035H256.50217V129.27738Zm-48.0736,51.86934h10.98282V144.89066H197.49933Zm-1.37145-55.70239a6.86288,6.86288,0,1,0,6.86267-6.86232,6.86319,6.86319,0,0,0-6.86267,6.86232M154.3195,131.931V188.8h11.02805V168.27754L179.28193,188.8h13.8348l-17.34912-24.46942L193.334,144.89066H179.16234l-13.81479,16.081V124.209Zm-4.64239,55.19847a29.64752,29.64752,0,0,1-13.17066,2.73236c-13.366,0-22.25189-8.30853-22.25189-22.80566,0-13.78461,8.47217-23.23151,22.05609-23.23151a30.6166,30.6166,0,0,1,13.46027,2.77393l-3.80969,9.35254a17.07211,17.07211,0,0,0-8.8498-2.28125c-7.53,0-11.81714,4.99518-11.81714,13.17279,0,8.869,4.78321,13.15283,11.72022,13.17547a16.90159,16.90159,0,0,0,8.94672-2.282Z" transform="translate(-43.90866 -43.86744)" fill="url(#reckitt_Grad_-_RGB_35_degrees)"/><path d="M281.74754,43.86744c-28.19995,0-51.19,21.98633-51.19,52.908a63.09675,63.09675,0,0,0,6.39758,28.02258l12.867-9.00873a47.54881,47.54881,0,0,1-4.36719-20.40552c0-22.03125,16.16736-38.71838,36.89807-38.71838,20.25085,0,32.68475,14.2804,32.68475,32.71607,0,16.49267-10.98022,27.20446-25.22308,27.20446-13.62433,0-23.24622-9.33087-23.24622-22.607,0-11.70062,7.4021-19.53443,16.31562-19.53443,6.69824,0,10.36609,3.15418,10.36609,7.94,0,5.48584-5.67273,8.5462-11.48658,6.918l-6.176,4.32446c4.0119,5.74206,13.62243,14.05377,17.6524,16.60834.02075-.0138,6.50324-4.5539,6.50324-4.5539a114.65246,114.65246,0,0,1-10.489-9.00348c8.9361-1.47729,12.97437-7.97638,12.97437-14.33038,0-9.858-7.02075-16.822-19.2547-16.822-14.553,0-26.7345,11.96637-26.7345,29.029,0,18.92578,13.84082,32.94391,33.74848,32.94391,21.98632,0,37.54754-16.40863,37.54754-38.49683C327.53532,62.94227,309.4514,43.86744,281.74754,43.86744Z" transform="translate(-43.90866 -43.86744)" fill="url(#R_Grad_-_RGB_35_degrees)"/></svg>